<svg width="150" height="19" viewBox="0 0 150 19" fill="none" xmlns="http://www.w3.org/2000/svg">
<path d="M1.99395 1.4666H0.664308C0.498103 0.313096 0.581205 0.065918 4.48702 0.065918H9.97179C17.7834 0.065918 21.1075 3.52641 21.1075 9.2939C21.1075 14.8142 17.9496 18.5219 10.2211 18.5219H0.0825906C-0.000511961 18.1923 -0.000511961 17.7804 0.0825906 17.4507C2.99117 17.286 3.48979 17.1212 3.48979 15.3086V2.62009C3.48979 1.63138 3.15738 1.4666 1.99395 1.4666ZM17.5341 9.78828C17.5341 4.67991 14.8748 1.63138 9.63933 1.63138H6.81389V15.0614C6.81389 16.7092 7.39561 16.9564 9.88867 16.9564C14.5424 17.0388 17.5341 15.5557 17.5341 9.78828Z" fill="#1D1D1B"/>
<path d="M34.1547 0.230957C34.2377 0.807705 34.404 1.30207 34.8195 2.20838L41.0522 16.2976C41.3846 16.9567 41.6339 17.2039 43.0466 17.2039H43.6284C43.7945 17.9454 43.6284 18.4397 42.9636 18.4397H34.2377C34.1547 18.1926 34.1547 17.7806 34.2377 17.3686C37.1463 17.2862 37.4788 17.0391 37.1463 16.3799L35.4843 12.3426H28.5037L27.4234 15.2264C26.8417 16.7919 26.8417 17.2039 28.2544 17.2039H30.5812C30.7474 17.9454 30.5812 18.4397 29.9164 18.4397H22.1879C22.1048 18.1926 22.1048 17.7806 22.1879 17.3686C24.2655 17.1214 24.5148 16.9567 25.2627 15.2264L30.5812 2.70274C31.4954 0.64292 31.8278 0.230957 33.0743 0.230957H34.1547ZM34.8195 10.942L31.9109 4.02102L29.0854 10.942H34.8195Z" fill="#1D1D1B"/>
<path d="M54.3492 0.560791C54.4323 0.807969 54.4323 1.30232 54.3492 1.6319C52.0223 1.79668 51.6899 2.29104 51.6899 3.44453V16.133C51.6899 17.0394 51.9392 17.2865 53.1027 17.2865H54.5985C54.7647 18.028 54.6816 18.5224 53.9337 18.5224H45.7065C45.6234 18.2752 45.6234 17.8632 45.7065 17.4513C47.8672 17.1217 48.3658 16.8745 48.3658 15.7211V2.95018C48.3658 1.96147 48.1165 1.79668 46.8699 1.79668H45.5403C45.3741 1.13754 45.5403 0.560791 46.7037 0.560791H54.3492Z" fill="#1D1D1B"/>
<path d="M85.43 0.560791C85.5131 0.890362 85.5131 1.21993 85.43 1.6319C82.937 1.79668 82.7708 2.20865 82.8539 3.03257L84.1835 16.133C84.2666 16.9569 84.6821 17.0394 86.7597 17.3689C86.8428 18.1104 86.7596 18.6048 86.0117 18.6048H76.455C76.3719 18.2752 76.3719 17.9457 76.455 17.5337L77.9509 17.4512C80.1946 17.2865 80.6101 17.0394 80.4439 15.7211L79.1974 3.93889L72.7154 17.4512C72.2167 18.44 72.0506 18.6048 71.3858 18.6048L63.9065 4.02129L63.0755 16.0506C62.9924 17.1217 62.9924 17.3689 65.8179 17.3689H67.3137C67.4799 18.1104 67.3968 18.6048 66.6489 18.6048H57.7569C57.6738 18.2752 57.6738 17.9457 57.7569 17.5337C60.7486 17.3689 60.998 16.8745 61.0811 15.7211L62.1613 3.11497C62.2445 2.29104 62.0782 1.96147 59.419 1.87907C59.2528 1.30232 59.419 0.643183 60.5824 0.643183H66.0672L72.8815 13.4964L79.1143 0.643183H85.43V0.560791Z" fill="#1D1D1B"/>
<path d="M100.304 0.560791C100.387 0.807969 100.387 1.30232 100.304 1.6319C97.4783 1.79668 96.8972 2.04386 96.8972 3.77411V15.6386C96.8972 16.5449 97.3953 16.7922 98.1434 16.7922H99.8887C101.883 16.7922 102.132 16.6274 103.295 14.2379L104.043 12.5901C104.791 12.5901 105.207 12.9197 104.958 13.7436C104.376 15.3091 103.877 16.8745 103.545 18.5224H90.3317C90.2486 18.1929 90.2486 17.8632 90.3317 17.4513C92.9909 17.2865 93.5727 16.9569 93.5727 15.2267V2.95018C93.5727 1.96147 93.2403 1.79668 92.0769 1.79668H90.7472C90.581 1.13754 90.7472 0.560791 91.9106 0.560791H100.304Z" fill="#1D1D1B"/>
<path d="M122.244 0.560538C122.327 1.79643 122.494 3.03232 122.66 4.18582C122.826 5.00974 122.494 5.5041 121.58 5.42171L121.33 4.18582C120.832 2.53796 120.333 2.126 118.838 2.126H114.516V8.96459H117.342C118.173 8.96459 118.339 8.71741 118.422 7.97587L118.588 6.57521H118.921C119.419 6.57521 119.752 6.73999 119.668 7.56391C119.585 9.21177 119.585 11.1068 119.668 12.8371C119.419 12.9194 119.004 13.0019 118.755 12.8371C118.422 10.7773 118.09 10.5301 117.342 10.5301H114.516V15.2264C114.516 16.2152 114.765 16.6272 116.593 16.6272H118.921C120.915 16.6272 121.164 16.4623 122.327 14.0729L123.076 12.4251C123.824 12.4251 124.239 12.7546 123.99 13.5786C123.408 15.144 122.909 16.7095 122.577 18.3573H107.702C107.619 18.0278 107.619 17.6982 107.702 17.2862C110.527 17.1215 111.109 16.9567 111.109 15.144V2.78514C111.109 1.79643 110.859 1.63164 109.613 1.63164H108.283C108.2 0.972501 108.283 0.395752 109.447 0.395752H122.244V0.560538Z" fill="#1D1D1B"/>
<path d="M128.892 1.79643H127.563C127.397 1.13729 127.563 0.560538 128.643 0.478145C129.973 0.395752 131.552 0.395752 135.375 0.395752C140.527 0.395752 143.436 2.86754 143.436 6.49281C143.436 8.71741 142.023 10.5301 139.779 11.5188C139.779 11.5188 141.774 13.3314 142.854 14.1554C146.427 16.9567 147.591 17.2039 149.918 17.2039C150.167 18.1102 149.502 18.8517 146.593 18.8517C144.101 18.8517 142.439 18.275 140.444 16.6271C139.53 15.8856 138.616 14.8145 137.868 13.5786C137.203 12.3427 137.12 12.2603 135.458 12.2603H133.796V16.2152C133.796 16.9567 134.045 17.2862 135.458 17.2862H136.871C136.954 18.0278 136.871 18.5222 136.123 18.5222H127.646C127.563 18.1925 127.563 17.863 127.646 17.451C129.973 17.2862 130.555 17.039 130.555 15.3912V3.03232C130.389 1.96122 130.057 1.79643 128.892 1.79643ZM135.042 10.7773C137.702 10.7773 139.862 10.3653 139.862 6.73999C139.862 3.11472 137.702 1.96122 134.626 1.96122H133.796V10.7773H135.042Z" fill="#1D1D1B"/>
</svg>
