<svg width="150" height="21" viewBox="0 0 150 21" fill="none" xmlns="http://www.w3.org/2000/svg">
<path d="M55.1057 19.9426H51.3708V6.7232H46.4924V3.55054H59.9841V6.7232H55.1057V19.9426Z" fill="#282828"/>
<path d="M75.0002 3.55054H71.1889V19.9426H75.0002V3.55054Z" fill="#282828"/>
<path d="M141.774 16.6944H148.328V19.9426H137.962V3.55054H141.774V16.6944Z" fill="#282828"/>
<path d="M91.2365 16.7699H93.5999C96.7254 16.7699 98.8595 14.8059 98.8595 11.7088C98.8595 8.76281 96.7254 6.79874 93.676 6.79874H91.2365V16.7699ZM87.5781 3.55054H93.676C98.1735 3.55054 102.67 5.89226 102.67 11.7088C102.67 17.1477 98.2496 19.9426 93.9044 19.9426H87.5781V3.55054Z" fill="#282828"/>
<path d="M116.543 13.8239L119.059 7.40305L121.497 13.8239H116.543ZM123.785 19.9426H127.977L121.117 3.55054H117.229L110.369 19.9426H114.409L115.629 16.6944H122.641L123.785 19.9426Z" fill="#282828"/>
<path d="M16.334 1.16333L11.4839 5.97127L16.3354 10.7779L21.1856 5.96991L16.334 1.16333Z" fill="#282828"/>
<path d="M16.3228 10.7625L11.4719 15.5697L16.3228 20.377L21.1736 15.5697L16.3228 10.7625Z" fill="#282828"/>
<path d="M6.64991 1.15112L1.79907 5.95838L6.64991 10.7657L11.5007 5.95838L6.64991 1.15112Z" fill="#282828"/>
<path d="M26.0206 1.17529L21.1704 5.98323L26.022 10.7898L30.8721 5.98188L26.0206 1.17529Z" fill="#282828"/>
</svg>
