<svg width="138" height="53" viewBox="0 0 138 53" fill="none" xmlns="http://www.w3.org/2000/svg">
<g clip-path="url(#clip0_0_65)">
<path d="M22.174 9.86387C21.7076 9.47246 21.2413 9.47246 20.6972 9.94213C18.1325 10.8816 13.3137 14.1696 12.1479 13.9348C14.0909 11.2731 16.1894 8.68958 18.5988 6.34098C19.6091 4.93181 18.2878 4.61867 18.1325 3.83581C17.8215 2.81808 17.977 1.72207 18.2878 0.78263C18.7542 -0.000236265 17.8215 -0.15681 17.2775 0.156337C10.982 6.73241 5.61928 13.3085 0.645113 19.9628C-0.132101 20.9805 0.0233421 21.7634 0.567391 22.3897L3.20992 25.756C3.75397 26.6955 4.6089 26.852 5.697 26.1475L14.0132 20.5109C10.6712 25.9909 7.4846 32.1755 5.07523 39.691C3.98713 42.9008 7.01827 47.7545 11.1375 52.8432C11.6038 53.3912 12.5365 52.8432 11.9147 51.7472C7.95093 44.31 11.2152 32.8018 23.9615 15.8136C24.5833 15.1091 24.8165 14.4045 24.3501 13.6999L22.174 9.86387Z" fill="#1D1D1B"/>
<path d="M54.9718 19.6491L56.0599 15.4217C56.2931 14.7954 56.7595 14.4822 57.3812 14.404H61.1118H62.1999L62.8217 12.4468H61.1895L56.0599 12.525C54.9718 12.4468 54.117 12.8383 53.5729 14.0908L50.7749 25.051L49.6868 29.3567C49.3759 30.2961 49.609 31.079 50.7749 31.3922C50.8526 31.3922 51.0081 31.4704 51.0858 31.4704H57.6143L58.1584 29.5133H53.1842C52.7957 29.2001 52.4847 29.2001 52.6402 28.2607L53.806 23.6418C53.9615 23.0938 54.2723 22.7024 54.8164 22.7024H58.6248L59.1688 21.0583H55.2827C54.8164 20.7452 54.7386 20.2754 54.9718 19.6491Z" fill="#1D1D1B"/>
<path d="M62.666 28.2614C65.2308 18.1624 63.6763 24.1905 66.008 15.4223C66.2412 14.7961 66.7075 14.4829 67.3293 14.4046H70.8267H72.0703L72.5366 12.8389L72.6921 12.3692H72.5366H70.8267H65.9303C64.8421 12.2909 63.9095 12.6823 63.4432 13.9349L61.1116 23.0944L59.5572 29.1226C59.2462 30.2185 59.4794 31.0014 60.9561 31.2363H61.0338H67.4847L68.0288 29.2791H63.0546C62.8214 29.2791 62.5105 29.2008 62.666 28.2614Z" fill="#1D1D1B"/>
<path d="M37.6406 22.3115L33.9099 19.0235C33.1327 18.084 33.9099 14.5611 35.5421 14.4829H39.6613H41.0603L41.5266 12.604H39.6613H34.5317C32.3555 12.9954 30.5679 17.536 31.4229 19.728L35.2312 23.1726C35.7752 23.7989 35.853 24.3469 35.853 24.9732L34.7649 28.731C34.5317 29.6704 33.9099 29.6704 33.1327 29.6704H28.0031L27.5367 31.471H35.0757C36.2416 31.3928 36.9411 30.6881 37.0965 29.5138L38.3401 24.7384C38.6509 23.6424 38.2624 22.8595 37.6406 22.3115Z" fill="#1D1D1B"/>
<path d="M50.2305 21.7632L50.7746 19.4929L51.9404 14.7174C52.0958 13.4648 51.7072 12.7603 50.7746 12.6037C50.6191 12.5254 50.4637 12.5254 50.3083 12.5254H42.9247L39.7381 24.5032L37.8728 31.4708H39.7381H40.4376L45.0232 14.4825H48.0543C48.6761 14.6391 49.0647 14.9523 49.0647 15.5785L47.8212 20.7454C47.6657 21.6066 47.1217 22.1546 46.189 22.4677L43.8574 22.9375L43.4687 24.7381L48.5207 23.7987C49.3756 23.5638 50.0751 22.9375 50.2305 21.7632Z" fill="#1D1D1B"/>
<path d="M77.1228 12.5254H74.0916L72.5372 18.2403L70.8274 24.5815L68.962 31.4708H70.8274H71.9932L72.5372 29.357L77.1228 12.5254Z" fill="#1D1D1B"/>
<path d="M104.014 12.5254H102.149H101.061L95.8533 31.4708H98.8849L102.149 19.5712L104.014 12.5254Z" fill="#1D1D1B"/>
<path d="M117.304 23.6425C117.46 23.0944 117.771 22.703 118.315 22.703H122.123L122.667 21.059H118.703C118.237 20.7458 118.159 20.2762 118.392 19.6499L119.558 15.4223C119.792 14.7961 120.257 14.4829 120.879 14.4047H124.299H125.699L126.086 13.1521L126.319 12.3692H126.086H124.377H119.636C118.548 12.2909 117.615 12.6823 117.149 13.9349L114.35 24.895L113.263 29.2008C112.952 30.1403 113.185 30.9232 114.35 31.2363C114.428 31.2363 114.584 31.3146 114.661 31.3146H121.19L121.734 29.3574H116.682C116.294 29.0442 115.983 29.0442 116.138 28.1048L117.304 23.6425Z" fill="#1D1D1B"/>
<path d="M136.425 12.5254H127.486L126.01 17.8489L124.3 24.1901L122.357 31.3924H124.3H126.01H131.451C132.771 31.3142 133.549 30.6096 133.86 29.2787L137.902 14.1694C138.057 13.2299 137.513 12.6037 136.425 12.5254ZM134.637 15.9699L131.295 27.713C131.218 28.6524 130.596 29.2787 129.352 29.357H126.166C126.088 29.357 126.01 29.357 125.933 29.2787C125.622 29.1222 125.622 28.7307 125.777 28.3393L125.933 27.7912L129.896 14.2477H133.782C134.792 14.326 134.948 14.9523 134.637 15.9699Z" fill="#1D1D1B"/>
<path d="M104.635 28.0264L114.195 15.7354L114.894 14.796C115.75 13.5434 115.439 12.604 114.195 12.604C114.195 12.604 114.195 12.604 114.117 12.604H105.413L105.335 14.3262H110.698C111.397 14.3262 111.786 14.6394 111.32 15.2657L102.148 27.4001L100.594 29.4356C99.9723 30.375 100.206 31.0796 101.294 31.5493H102.148H110.775L111.32 29.4356H104.791C104.169 29.279 104.091 28.4961 104.635 28.0264Z" fill="#1D1D1B"/>
<path d="M82.4076 12.6037L72.5369 31.2359L72.3815 31.549H72.5369H74.7131L82.4853 16.6746L83.1847 16.7528L83.5734 20.902C83.8842 21.9197 83.1847 21.8415 82.9516 21.8415H80.7754L80.3868 23.4072L82.9516 23.4855C83.4179 23.5638 83.6511 23.7987 83.5734 24.2683L84.0397 31.3142H86.6822L85.5941 12.5254L82.4076 12.6037Z" fill="#1D1D1B"/>
<path d="M90.7238 28.0261L94.9205 12.5254H91.8898L87.3818 29.2004C87.3041 30.1399 87.6927 31.1575 88.936 31.4708H94.9205L95.5424 29.4353L91.268 29.357C90.7238 29.2787 90.4906 28.809 90.7238 28.0261Z" fill="#1D1D1B"/>
</g>
<defs>
<clipPath id="clip0_0_65">
<rect width="138" height="53" fill="white"/>
</clipPath>
</defs>
</svg>
