<svg width="112" height="25" viewBox="0 0 112 25" fill="none" xmlns="http://www.w3.org/2000/svg">
<path d="M0 12.3131V24.6162H2.44H4.88V19.6162V14.5867L6.75 14.6457L8.62 14.7048L11.49 19.6457L14.34 24.5867L17.15 24.6162C18.67 24.6162 19.93 24.5768 19.93 24.5178C19.93 24.4587 18.63 22.1753 17.06 19.4489C15.47 16.7225 14.15 14.4489 14.11 14.38C14.07 14.3013 14.55 14.006 15.2 13.6812C16.69 12.9528 18.19 11.5847 18.83 10.3446C19.72 8.58275 19.77 5.48236 18.91 3.83866C18.02 2.1359 15.94 0.698887 13.65 0.216602C13 0.0788078 10.13 -0.00976753 6.29 -0.00976753H0V12.3131ZM12.95 4.61622C14.07 5.11819 14.64 6.01386 14.64 7.31307C14.64 8.51386 14.13 9.43905 13.18 9.95086C12.61 10.2461 11.9 10.3249 8.71 10.3741L4.89 10.4528V7.32291V4.19298H8.5C11.61 4.21267 12.22 4.27173 12.95 4.61622Z" fill="black"/>
<path d="M77.65 12.5197V24.626H79.99H82.33V12.5197V0.413372H79.99H77.65V12.5197Z" fill="black"/>
<path d="M103.5 11.7517C103.56 21.0824 103.56 21.1217 104.03 22.0568C104.56 23.1198 105.82 24.3205 106.84 24.7339C107.28 24.9111 108.3 25.0095 109.76 25.0095H112V23.0115V21.0135H110.7C109.71 21.0135 109.3 20.915 108.87 20.5902L108.34 20.1867V15.482V10.8068H110.17H112V8.90716V7.00755H110.17H108.34V4.70441V2.40126H105.88H103.44L103.5 11.7517Z" fill="black"/>
<path d="M26.18 6.98832C24.53 7.52965 23.41 8.21863 22.22 9.44895C21 10.7482 20.43 11.7521 20.02 13.4548C18.93 18.0218 20.93 22.3919 25 24.2915C26.26 24.8919 26.42 24.9214 28.96 24.9214C31.23 24.9214 31.77 24.8623 32.78 24.4489C34.2 23.8879 36.1 22.2442 36.85 20.8859L37.38 19.9115L35.75 18.9765C34.86 18.4549 34.05 18.0415 33.96 18.0415C33.88 18.0415 33.53 18.445 33.17 18.9174C32.36 20.0789 31.26 20.7777 29.92 21.0434C28.73 21.2698 27.86 21.1419 26.83 20.6202C25.61 20.0198 24.39 18.445 24.39 17.4411C24.39 17.0375 24.47 17.0375 31.1 17.0375H37.81V15.3643C37.81 11.5257 36.01 8.69107 32.63 7.22454C31.18 6.55525 27.82 6.45682 26.18 6.98832ZM31.67 10.8958C32.2 11.26 32.71 11.8308 33.03 12.5001L33.56 13.5238L29.05 13.5828C26.57 13.6123 24.5 13.5828 24.44 13.5238C24.16 13.2482 25.62 11.4568 26.64 10.8564C27.68 10.2265 27.86 10.197 29.31 10.256C30.59 10.3151 30.96 10.3938 31.67 10.8958Z" fill="black"/>
<path d="M63.04 6.91931C60.42 7.64766 58 9.54725 57.01 11.6831C56.3 13.248 55.99 15.6496 56.3 17.4606C57.09 22.1949 60.64 25.0295 65.85 25.0295C68.9 25.0295 70.93 24.3012 72.9 22.5689C74.04 21.5453 74.81 20.2658 75.31 18.5433C75.74 17.0768 75.64 13.8091 75.13 12.4114C74.29 10.1477 72.08 8.0512 69.58 7.17521C68.03 6.61419 64.61 6.48624 63.04 6.91931ZM67.99 11.3878C70.84 12.628 71.78 16.3681 69.86 18.8484C68.5 20.6103 65.63 21.2697 63.7 20.2756C62.65 19.7146 61.5 18.4744 61.18 17.5099C60.77 16.3091 61.01 14.1732 61.65 13.2382C63.09 11.0925 65.59 10.374 67.99 11.3878Z" fill="black"/>
<path d="M37.67 7.29322C37.73 7.43102 39.36 11.3976 41.29 16.0924L44.81 24.6357L47.02 24.5767L49.23 24.5176L52.66 16.2105C54.55 11.6436 56.15 7.7066 56.22 7.44086L56.35 6.97826L53.87 7.03732L51.37 7.09637L49.21 12.7361C48.03 15.8365 47 18.3168 46.94 18.2381C46.86 18.1594 45.86 15.6003 44.7 12.5393L42.59 6.99794H40.07C38.04 7.01763 37.58 7.07668 37.67 7.29322Z" fill="black"/>
<path d="M84.76 12.4804C84.76 15.5611 84.86 18.4548 84.99 19.1241C85.43 21.565 86.76 23.2481 89.02 24.3012C90.32 24.9016 90.47 24.9312 93.11 24.9312C95.69 24.9312 95.93 24.8918 97.07 24.3701C99.33 23.3367 100.77 21.506 101.21 19.1339C101.34 18.4745 101.44 15.5709 101.44 12.4902V7.02761H99.13H96.79L96.73 12.4705C96.67 17.6969 96.65 17.9725 96.2 18.7697C95.55 19.9705 94.45 20.4922 92.81 20.3937C91.35 20.315 90.51 19.8229 89.94 18.691C89.6 18.0119 89.56 17.3327 89.5 12.4607L89.44 7.01777H87.1H84.79V12.4804H84.76Z" fill="black"/>
</svg>
